<?xml version="1.0" encoding="utf-8" standalone="no"?>
<!DOCTYPE svg PUBLIC "-//W3C//DTD SVG 1.1//EN"
  "http://www.w3.org/Graphics/SVG/1.1/DTD/svg11.dtd">
<svg xmlns:xlink="http://www.w3.org/1999/xlink" width="288pt" height="334.8pt" viewBox="0 0 288 334.8" xmlns="http://www.w3.org/2000/svg" version="1.1">
 <metadata>
  <rdf:RDF xmlns:dc="http://purl.org/dc/elements/1.1/" xmlns:cc="http://creativecommons.org/ns#" xmlns:rdf="http://www.w3.org/1999/02/22-rdf-syntax-ns#">
   <cc:Work>
    <dc:type rdf:resource="http://purl.org/dc/dcmitype/StillImage"/>
    <dc:date>2023-02-17T17:50:54.843456</dc:date>
    <dc:format>image/svg+xml</dc:format>
    <dc:creator>
     <cc:Agent>
      <dc:title>Matplotlib v3.5.1, https://matplotlib.org/</dc:title>
     </cc:Agent>
    </dc:creator>
   </cc:Work>
  </rdf:RDF>
 </metadata>
 <defs>
  <style type="text/css">*{stroke-linejoin: round; stroke-linecap: butt}</style>
 </defs>
 <g id="figure_1">
  <g id="patch_1">
   <path d="M 0 334.8 
L 288 334.8 
L 288 0 
L 0 0 
z
" style="fill: #ffffff"/>
  </g>
  <g id="axes_1">
   <g id="patch_2">
    <path d="M 36 143.2944 
L 259.2 143.2944 
L 259.2 40.176 
L 36 40.176 
z
" style="fill: #ffffff"/>
   </g>
   <g id="matplotlib.axis_1">
    <g id="xtick_1">
     <g id="line2d_1">
      <defs>
       <path id="m7106cf74a5" d="M 0 0 
L 0 3.5 
" style="stroke: #000000; stroke-width: 0.8"/>
      </defs>
      <g>
       <use xlink:href="#m7106cf74a5" x="36" y="143.2944" style="stroke: #000000; stroke-width: 0.8"/>
      </g>
     </g>
     <g id="text_1">
      <!-- 0 -->
      <g transform="translate(32.81875 157.892837)scale(0.1 -0.1)">
       <defs>
        <path id="DejaVuSans-30" d="M 2034 4250 
Q 1547 4250 1301 3770 
Q 1056 3291 1056 2328 
Q 1056 1369 1301 889 
Q 1547 409 2034 409 
Q 2525 409 2770 889 
Q 3016 1369 3016 2328 
Q 3016 3291 2770 3770 
Q 2525 4250 2034 4250 
z
M 2034 4750 
Q 2819 4750 3233 4129 
Q 3647 3509 3647 2328 
Q 3647 1150 3233 529 
Q 2819 -91 2034 -91 
Q 1250 -91 836 529 
Q 422 1150 422 2328 
Q 422 3509 836 4129 
Q 1250 4750 2034 4750 
z
" transform="scale(0.015625)"/>
       </defs>
       <use xlink:href="#DejaVuSans-30"/>
      </g>
     </g>
    </g>
    <g id="xtick_2">
     <g id="line2d_2">
      <g>
       <use xlink:href="#m7106cf74a5" x="91.8" y="143.2944" style="stroke: #000000; stroke-width: 0.8"/>
      </g>
     </g>
     <g id="text_2">
      <!-- 2 -->
      <g transform="translate(88.61875 157.892837)scale(0.1 -0.1)">
       <defs>
        <path id="DejaVuSans-32" d="M 1228 531 
L 3431 531 
L 3431 0 
L 469 0 
L 469 531 
Q 828 903 1448 1529 
Q 2069 2156 2228 2338 
Q 2531 2678 2651 2914 
Q 2772 3150 2772 3378 
Q 2772 3750 2511 3984 
Q 2250 4219 1831 4219 
Q 1534 4219 1204 4116 
Q 875 4013 500 3803 
L 500 4441 
Q 881 4594 1212 4672 
Q 1544 4750 1819 4750 
Q 2544 4750 2975 4387 
Q 3406 4025 3406 3419 
Q 3406 3131 3298 2873 
Q 3191 2616 2906 2266 
Q 2828 2175 2409 1742 
Q 1991 1309 1228 531 
z
" transform="scale(0.015625)"/>
       </defs>
       <use xlink:href="#DejaVuSans-32"/>
      </g>
     </g>
    </g>
    <g id="xtick_3">
     <g id="line2d_3">
      <g>
       <use xlink:href="#m7106cf74a5" x="147.6" y="143.2944" style="stroke: #000000; stroke-width: 0.8"/>
      </g>
     </g>
     <g id="text_3">
      <!-- 4 -->
      <g transform="translate(144.41875 157.892837)scale(0.1 -0.1)">
       <defs>
        <path id="DejaVuSans-34" d="M 2419 4116 
L 825 1625 
L 2419 1625 
L 2419 4116 
z
M 2253 4666 
L 3047 4666 
L 3047 1625 
L 3713 1625 
L 3713 1100 
L 3047 1100 
L 3047 0 
L 2419 0 
L 2419 1100 
L 313 1100 
L 313 1709 
L 2253 4666 
z
" transform="scale(0.015625)"/>
       </defs>
       <use xlink:href="#DejaVuSans-34"/>
      </g>
     </g>
    </g>
    <g id="xtick_4">
     <g id="line2d_4">
      <g>
       <use xlink:href="#m7106cf74a5" x="203.4" y="143.2944" style="stroke: #000000; stroke-width: 0.8"/>
      </g>
     </g>
     <g id="text_4">
      <!-- 6 -->
      <g transform="translate(200.21875 157.892837)scale(0.1 -0.1)">
       <defs>
        <path id="DejaVuSans-36" d="M 2113 2584 
Q 1688 2584 1439 2293 
Q 1191 2003 1191 1497 
Q 1191 994 1439 701 
Q 1688 409 2113 409 
Q 2538 409 2786 701 
Q 3034 994 3034 1497 
Q 3034 2003 2786 2293 
Q 2538 2584 2113 2584 
z
M 3366 4563 
L 3366 3988 
Q 3128 4100 2886 4159 
Q 2644 4219 2406 4219 
Q 1781 4219 1451 3797 
Q 1122 3375 1075 2522 
Q 1259 2794 1537 2939 
Q 1816 3084 2150 3084 
Q 2853 3084 3261 2657 
Q 3669 2231 3669 1497 
Q 3669 778 3244 343 
Q 2819 -91 2113 -91 
Q 1303 -91 875 529 
Q 447 1150 447 2328 
Q 447 3434 972 4092 
Q 1497 4750 2381 4750 
Q 2619 4750 2861 4703 
Q 3103 4656 3366 4563 
z
" transform="scale(0.015625)"/>
       </defs>
       <use xlink:href="#DejaVuSans-36"/>
      </g>
     </g>
    </g>
    <g id="xtick_5">
     <g id="line2d_5">
      <g>
       <use xlink:href="#m7106cf74a5" x="259.2" y="143.2944" style="stroke: #000000; stroke-width: 0.8"/>
      </g>
     </g>
     <g id="text_5">
      <!-- 8 -->
      <g transform="translate(256.01875 157.892837)scale(0.1 -0.1)">
       <defs>
        <path id="DejaVuSans-38" d="M 2034 2216 
Q 1584 2216 1326 1975 
Q 1069 1734 1069 1313 
Q 1069 891 1326 650 
Q 1584 409 2034 409 
Q 2484 409 2743 651 
Q 3003 894 3003 1313 
Q 3003 1734 2745 1975 
Q 2488 2216 2034 2216 
z
M 1403 2484 
Q 997 2584 770 2862 
Q 544 3141 544 3541 
Q 544 4100 942 4425 
Q 1341 4750 2034 4750 
Q 2731 4750 3128 4425 
Q 3525 4100 3525 3541 
Q 3525 3141 3298 2862 
Q 3072 2584 2669 2484 
Q 3125 2378 3379 2068 
Q 3634 1759 3634 1313 
Q 3634 634 3220 271 
Q 2806 -91 2034 -91 
Q 1263 -91 848 271 
Q 434 634 434 1313 
Q 434 1759 690 2068 
Q 947 2378 1403 2484 
z
M 1172 3481 
Q 1172 3119 1398 2916 
Q 1625 2713 2034 2713 
Q 2441 2713 2670 2916 
Q 2900 3119 2900 3481 
Q 2900 3844 2670 4047 
Q 2441 4250 2034 4250 
Q 1625 4250 1398 4047 
Q 1172 3844 1172 3481 
z
" transform="scale(0.015625)"/>
       </defs>
       <use xlink:href="#DejaVuSans-38"/>
      </g>
     </g>
    </g>
    <g id="text_6">
     <!-- Time [sec] -->
     <g transform="translate(121.445312 171.570962)scale(0.1 -0.1)">
      <defs>
       <path id="DejaVuSans-54" d="M -19 4666 
L 3928 4666 
L 3928 4134 
L 2272 4134 
L 2272 0 
L 1638 0 
L 1638 4134 
L -19 4134 
L -19 4666 
z
" transform="scale(0.015625)"/>
       <path id="DejaVuSans-69" d="M 603 3500 
L 1178 3500 
L 1178 0 
L 603 0 
L 603 3500 
z
M 603 4863 
L 1178 4863 
L 1178 4134 
L 603 4134 
L 603 4863 
z
" transform="scale(0.015625)"/>
       <path id="DejaVuSans-6d" d="M 3328 2828 
Q 3544 3216 3844 3400 
Q 4144 3584 4550 3584 
Q 5097 3584 5394 3201 
Q 5691 2819 5691 2113 
L 5691 0 
L 5113 0 
L 5113 2094 
Q 5113 2597 4934 2840 
Q 4756 3084 4391 3084 
Q 3944 3084 3684 2787 
Q 3425 2491 3425 1978 
L 3425 0 
L 2847 0 
L 2847 2094 
Q 2847 2600 2669 2842 
Q 2491 3084 2119 3084 
Q 1678 3084 1418 2786 
Q 1159 2488 1159 1978 
L 1159 0 
L 581 0 
L 581 3500 
L 1159 3500 
L 1159 2956 
Q 1356 3278 1631 3431 
Q 1906 3584 2284 3584 
Q 2666 3584 2933 3390 
Q 3200 3197 3328 2828 
z
" transform="scale(0.015625)"/>
       <path id="DejaVuSans-65" d="M 3597 1894 
L 3597 1613 
L 953 1613 
Q 991 1019 1311 708 
Q 1631 397 2203 397 
Q 2534 397 2845 478 
Q 3156 559 3463 722 
L 3463 178 
Q 3153 47 2828 -22 
Q 2503 -91 2169 -91 
Q 1331 -91 842 396 
Q 353 884 353 1716 
Q 353 2575 817 3079 
Q 1281 3584 2069 3584 
Q 2775 3584 3186 3129 
Q 3597 2675 3597 1894 
z
M 3022 2063 
Q 3016 2534 2758 2815 
Q 2500 3097 2075 3097 
Q 1594 3097 1305 2825 
Q 1016 2553 972 2059 
L 3022 2063 
z
" transform="scale(0.015625)"/>
       <path id="DejaVuSans-20" transform="scale(0.015625)"/>
       <path id="DejaVuSans-5b" d="M 550 4863 
L 1875 4863 
L 1875 4416 
L 1125 4416 
L 1125 -397 
L 1875 -397 
L 1875 -844 
L 550 -844 
L 550 4863 
z
" transform="scale(0.015625)"/>
       <path id="DejaVuSans-73" d="M 2834 3397 
L 2834 2853 
Q 2591 2978 2328 3040 
Q 2066 3103 1784 3103 
Q 1356 3103 1142 2972 
Q 928 2841 928 2578 
Q 928 2378 1081 2264 
Q 1234 2150 1697 2047 
L 1894 2003 
Q 2506 1872 2764 1633 
Q 3022 1394 3022 966 
Q 3022 478 2636 193 
Q 2250 -91 1575 -91 
Q 1294 -91 989 -36 
Q 684 19 347 128 
L 347 722 
Q 666 556 975 473 
Q 1284 391 1588 391 
Q 1994 391 2212 530 
Q 2431 669 2431 922 
Q 2431 1156 2273 1281 
Q 2116 1406 1581 1522 
L 1381 1569 
Q 847 1681 609 1914 
Q 372 2147 372 2553 
Q 372 3047 722 3315 
Q 1072 3584 1716 3584 
Q 2034 3584 2315 3537 
Q 2597 3491 2834 3397 
z
" transform="scale(0.015625)"/>
       <path id="DejaVuSans-63" d="M 3122 3366 
L 3122 2828 
Q 2878 2963 2633 3030 
Q 2388 3097 2138 3097 
Q 1578 3097 1268 2742 
Q 959 2388 959 1747 
Q 959 1106 1268 751 
Q 1578 397 2138 397 
Q 2388 397 2633 464 
Q 2878 531 3122 666 
L 3122 134 
Q 2881 22 2623 -34 
Q 2366 -91 2075 -91 
Q 1284 -91 818 406 
Q 353 903 353 1747 
Q 353 2603 823 3093 
Q 1294 3584 2113 3584 
Q 2378 3584 2631 3529 
Q 2884 3475 3122 3366 
z
" transform="scale(0.015625)"/>
       <path id="DejaVuSans-5d" d="M 1947 4863 
L 1947 -844 
L 622 -844 
L 622 -397 
L 1369 -397 
L 1369 4416 
L 622 4416 
L 622 4863 
L 1947 4863 
z
" transform="scale(0.015625)"/>
      </defs>
      <use xlink:href="#DejaVuSans-54"/>
      <use xlink:href="#DejaVuSans-69" x="57.958984"/>
      <use xlink:href="#DejaVuSans-6d" x="85.742188"/>
      <use xlink:href="#DejaVuSans-65" x="183.154297"/>
      <use xlink:href="#DejaVuSans-20" x="244.677734"/>
      <use xlink:href="#DejaVuSans-5b" x="276.464844"/>
      <use xlink:href="#DejaVuSans-73" x="315.478516"/>
      <use xlink:href="#DejaVuSans-65" x="367.578125"/>
      <use xlink:href="#DejaVuSans-63" x="429.101562"/>
      <use xlink:href="#DejaVuSans-5d" x="484.082031"/>
     </g>
    </g>
   </g>
   <g id="matplotlib.axis_2">
    <g id="text_7">
     <!-- Intensity -->
     <g transform="translate(29.920312 113.4977)rotate(-90)scale(0.1 -0.1)">
      <defs>
       <path id="DejaVuSans-49" d="M 628 4666 
L 1259 4666 
L 1259 0 
L 628 0 
L 628 4666 
z
" transform="scale(0.015625)"/>
       <path id="DejaVuSans-6e" d="M 3513 2113 
L 3513 0 
L 2938 0 
L 2938 2094 
Q 2938 2591 2744 2837 
Q 2550 3084 2163 3084 
Q 1697 3084 1428 2787 
Q 1159 2491 1159 1978 
L 1159 0 
L 581 0 
L 581 3500 
L 1159 3500 
L 1159 2956 
Q 1366 3272 1645 3428 
Q 1925 3584 2291 3584 
Q 2894 3584 3203 3211 
Q 3513 2838 3513 2113 
z
" transform="scale(0.015625)"/>
       <path id="DejaVuSans-74" d="M 1172 4494 
L 1172 3500 
L 2356 3500 
L 2356 3053 
L 1172 3053 
L 1172 1153 
Q 1172 725 1289 603 
Q 1406 481 1766 481 
L 2356 481 
L 2356 0 
L 1766 0 
Q 1100 0 847 248 
Q 594 497 594 1153 
L 594 3053 
L 172 3053 
L 172 3500 
L 594 3500 
L 594 4494 
L 1172 4494 
z
" transform="scale(0.015625)"/>
       <path id="DejaVuSans-79" d="M 2059 -325 
Q 1816 -950 1584 -1140 
Q 1353 -1331 966 -1331 
L 506 -1331 
L 506 -850 
L 844 -850 
Q 1081 -850 1212 -737 
Q 1344 -625 1503 -206 
L 1606 56 
L 191 3500 
L 800 3500 
L 1894 763 
L 2988 3500 
L 3597 3500 
L 2059 -325 
z
" transform="scale(0.015625)"/>
      </defs>
      <use xlink:href="#DejaVuSans-49"/>
      <use xlink:href="#DejaVuSans-6e" x="29.492188"/>
      <use xlink:href="#DejaVuSans-74" x="92.871094"/>
      <use xlink:href="#DejaVuSans-65" x="132.080078"/>
      <use xlink:href="#DejaVuSans-6e" x="193.603516"/>
      <use xlink:href="#DejaVuSans-73" x="256.982422"/>
      <use xlink:href="#DejaVuSans-69" x="309.082031"/>
      <use xlink:href="#DejaVuSans-74" x="336.865234"/>
      <use xlink:href="#DejaVuSans-79" x="376.074219"/>
     </g>
    </g>
   </g>
   <g id="line2d_6">
    <path d="M 36 93.647376 
L 36.435938 101.77071 
L 37.307812 110.528174 
L 37.74375 113.683094 
L 38.179688 112.676733 
L 38.615625 111.207912 
L 39.051563 107.904121 
L 39.4875 101.937379 
L 39.923437 98.227004 
L 40.359375 96.009726 
L 40.795313 95.75372 
L 41.667187 102.359825 
L 43.410938 113.362149 
L 43.846875 113.691391 
L 44.71875 116.440426 
L 45.154688 116.489736 
L 45.590625 117.109936 
L 46.026562 117.336062 
L 46.4625 116.936705 
L 46.898438 113.133568 
L 47.770313 100.941815 
L 48.642187 86.691102 
L 49.514063 73.790178 
L 49.95 70.222928 
L 50.385937 68.462622 
L 50.821875 68.817267 
L 51.257812 72.503978 
L 52.129688 85.389698 
L 53.001562 95.91461 
L 53.4375 98.668645 
L 53.873437 99.888499 
L 54.309375 101.666817 
L 54.745312 104.183137 
L 55.18125 108.166212 
L 55.617188 108.801933 
L 56.053125 108.172261 
L 57.360937 119.444231 
L 57.796875 122.795756 
L 58.232812 124.91077 
L 58.66875 125.657299 
L 59.104687 126.164038 
L 59.540625 127.847309 
L 60.4125 128.267603 
L 60.848438 128.516134 
L 61.720312 125.280573 
L 62.15625 124.173482 
L 62.592187 123.677523 
L 63.028125 121.219921 
L 63.9 104.179877 
L 64.335938 94.729832 
L 65.64375 59.035362 
L 66.079688 51.334925 
L 66.515625 45.648062 
L 66.951562 44.8632 
L 67.3875 49.759992 
L 69.567187 99.192877 
L 70.439063 117.370406 
L 70.875 122.623132 
L 71.310937 125.578139 
L 72.61875 129.393454 
L 73.054688 127.945616 
L 73.490625 125.525996 
L 74.3625 118.207287 
L 74.798438 116.078714 
L 75.234375 116.310642 
L 75.670312 117.889896 
L 76.10625 118.767947 
L 76.542187 119.127653 
L 78.285937 111.338159 
L 78.721875 108.939068 
L 79.157813 105.034849 
L 79.59375 103.31587 
L 80.029687 102.915235 
L 80.901562 97.764014 
L 81.773438 90.531381 
L 83.08125 79.714916 
L 83.517188 76.828048 
L 83.953125 76.90053 
L 84.389062 79.117137 
L 84.825 83.349939 
L 86.56875 109.134438 
L 87.004687 112.71009 
L 87.440625 114.325121 
L 87.876563 116.61473 
L 88.3125 117.472261 
L 88.748437 116.250672 
L 90.05625 104.098751 
L 90.492188 101.848015 
L 90.928125 100.669628 
L 91.364062 97.212777 
L 91.8 95.059916 
L 92.235938 97.255781 
L 92.671875 102.784238 
L 93.54375 119.36083 
L 93.979687 125.273756 
L 94.415625 128.618745 
L 94.851562 130.681598 
L 95.723437 135.831824 
L 96.159375 133.785181 
L 97.03125 126.282053 
L 98.339062 114.807884 
L 99.210938 106.708161 
L 100.082813 92.911231 
L 101.826562 71.341406 
L 102.2625 67.820533 
L 102.698437 68.497885 
L 103.134375 68.836677 
L 103.570312 72.381642 
L 104.442188 90.030847 
L 104.878125 93.351471 
L 105.314062 95.125083 
L 106.621875 109.191216 
L 107.057812 113.194943 
L 107.49375 115.164884 
L 107.929688 116.524161 
L 108.365625 116.708821 
L 108.801563 115.465235 
L 109.2375 114.602355 
L 109.673437 116.257589 
L 110.109375 118.53833 
L 110.98125 117.536102 
L 111.417187 120.549695 
L 112.289062 129.319764 
L 112.725 129.902797 
L 113.160938 129.039509 
L 113.596875 129.496049 
L 114.032812 129.163669 
L 114.46875 128.081497 
L 114.904687 123.902363 
L 115.340625 117.955752 
L 116.2125 112.235673 
L 116.648438 105.214232 
L 117.520313 87.065323 
L 118.392187 72.166386 
L 118.828125 68.335016 
L 119.264062 68.32066 
L 120.135937 73.644981 
L 120.571875 75.840347 
L 121.44375 84.024637 
L 122.751562 100.689234 
L 124.059375 120.048047 
L 124.495312 125.814268 
L 125.367188 130.60841 
L 125.803125 131.810962 
L 126.239062 131.847251 
L 126.675 133.741094 
L 127.110937 133.695221 
L 127.546875 128.703036 
L 128.41875 116.626798 
L 128.854688 110.974726 
L 129.726562 94.288575 
L 130.1625 91.867299 
L 130.598437 91.914563 
L 131.470312 99.966175 
L 131.90625 100.98104 
L 132.342187 100.51832 
L 132.778125 102.371163 
L 133.214063 105.694238 
L 134.521875 110.048651 
L 134.957812 108.640888 
L 135.39375 104.484065 
L 136.701562 89.103586 
L 137.573438 81.082784 
L 138.009375 79.031222 
L 138.88125 81.31496 
L 139.753125 88.277799 
L 140.625 91.153447 
L 141.060937 91.726713 
L 141.496875 92.042008 
L 141.932813 94.463819 
L 142.804688 101.273566 
L 144.1125 107.692551 
L 144.548437 107.48134 
L 144.984375 107.461593 
L 145.420312 108.723991 
L 146.292188 104.65086 
L 146.728125 104.94846 
L 147.164062 107.12474 
L 148.471875 117.796829 
L 149.779687 134.376035 
L 150.215625 137.24877 
L 150.651563 138.6072 
L 151.0875 136.968269 
L 151.959375 130.625665 
L 152.395312 127.646304 
L 152.83125 122.49496 
L 155.446875 77.970328 
L 156.754687 58.228166 
L 157.190625 58.326902 
L 157.626562 61.447365 
L 158.0625 65.398429 
L 158.934375 76.485619 
L 160.242188 97.818304 
L 161.114062 109.82125 
L 161.55 113.440388 
L 161.985937 114.520216 
L 162.857812 117.894033 
L 163.29375 116.883866 
L 163.729688 115.067831 
L 164.165625 112.402468 
L 164.601562 110.89119 
L 165.0375 110.58474 
L 166.345313 104.182608 
L 167.653125 97.846722 
L 168.089062 97.361207 
L 168.525 99.933636 
L 169.396875 109.00131 
L 170.704688 117.785859 
L 171.140625 119.207532 
L 171.576562 119.690028 
L 172.0125 119.908029 
L 172.448437 118.88717 
L 172.884375 118.703839 
L 173.320312 117.994022 
L 173.75625 114.504725 
L 174.192187 109.497475 
L 175.5 87.050006 
L 175.935937 83.741759 
L 176.371875 83.079571 
L 176.807812 82.190791 
L 177.24375 81.819132 
L 177.679688 82.039003 
L 178.551562 85.120433 
L 178.9875 84.79739 
L 179.423438 84.796761 
L 179.859375 83.570429 
L 180.295312 83.067764 
L 180.73125 83.811874 
L 181.167187 84.907729 
L 182.039062 90.907724 
L 182.475 92.814508 
L 183.782813 101.78598 
L 184.21875 104.110047 
L 184.654687 105.349728 
L 185.090625 105.95606 
L 185.526562 107.212633 
L 186.398438 115.249684 
L 187.270312 120.146739 
L 187.70625 123.273126 
L 188.142188 124.805623 
L 188.578125 124.512578 
L 189.014062 124.827272 
L 189.45 123.982904 
L 191.19375 113.997277 
L 191.629687 109.307665 
L 192.065625 103.039764 
L 193.373437 77.500568 
L 193.809375 70.333099 
L 194.245312 65.761376 
L 194.68125 63.826046 
L 195.117188 65.177636 
L 195.989062 72.788056 
L 196.425 76.995401 
L 196.860938 79.601764 
L 197.296875 84.702557 
L 198.16875 97.142113 
L 199.040625 104.555789 
L 199.9125 111.856275 
L 200.348437 113.705596 
L 201.220313 113.1065 
L 201.65625 114.214549 
L 202.092187 111.59311 
L 202.528125 107.414089 
L 202.964062 106.486304 
L 203.4 105.108029 
L 203.835938 103.339161 
L 204.271875 102.652198 
L 204.707812 103.070359 
L 205.14375 104.175274 
L 205.579687 105.758407 
L 206.451562 113.589655 
L 207.323437 122.887039 
L 207.759375 122.352544 
L 208.63125 114.098345 
L 209.067187 110.325976 
L 209.503125 107.798529 
L 210.375 100.213876 
L 211.682812 88.272275 
L 212.11875 85.806603 
L 212.990625 83.965006 
L 213.426562 85.250207 
L 213.8625 86.933312 
L 214.298437 86.125998 
L 214.734375 88.210225 
L 215.170312 92.966444 
L 215.60625 94.387139 
L 216.042187 94.833747 
L 217.35 101.121106 
L 218.221875 96.251419 
L 218.657812 95.464534 
L 219.09375 93.360344 
L 219.529687 92.981626 
L 219.965625 93.803925 
L 220.401562 92.869812 
L 221.273438 90.488973 
L 221.709375 90.309938 
L 222.58125 96.327674 
L 223.017187 97.636642 
L 223.453125 101.63203 
L 224.325 112.910434 
L 225.632812 125.674033 
L 226.06875 127.764185 
L 226.504687 127.158188 
L 226.940625 125.259867 
L 230.428125 83.196287 
L 230.864062 79.16446 
L 231.735937 66.390852 
L 232.171875 64.323314 
L 232.607812 64.484001 
L 233.04375 65.966142 
L 233.479687 68.323473 
L 233.915625 71.864706 
L 234.7875 84.415498 
L 235.659375 93.716637 
L 236.967187 109.135599 
L 237.403125 110.738346 
L 237.839062 110.325838 
L 238.275 111.802845 
L 239.146875 112.511598 
L 239.582812 112.75263 
L 240.01875 113.740658 
L 240.454687 116.283631 
L 240.890625 116.805832 
L 241.326562 115.99814 
L 241.7625 117.585518 
L 242.198437 120.726033 
L 242.634375 120.452135 
L 243.50625 110.956618 
L 244.378125 100.023452 
L 245.25 92.28255 
L 245.685937 89.773781 
L 246.121875 88.116796 
L 246.557812 84.670016 
L 246.99375 77.900231 
L 247.429688 73.279658 
L 247.865625 71.554828 
L 248.301562 70.946513 
L 248.7375 73.509374 
L 249.609375 81.26116 
L 250.48125 92.14679 
L 251.353125 106.887786 
L 251.789062 110.983026 
L 252.225 112.4453 
L 252.660937 111.498073 
L 253.096875 111.850401 
L 253.532812 111.300074 
L 253.96875 110.066056 
L 254.840625 109.471347 
L 255.276562 109.581283 
L 255.7125 108.547822 
L 256.148438 108.075454 
L 256.584375 108.539708 
L 257.45625 103.859925 
L 257.892187 103.082318 
L 258.328125 101.79651 
L 258.764063 101.512313 
L 258.764063 101.512313 
" clip-path="url(#p1a3dd09f85)" style="fill: none; stroke: #1f77b4; stroke-width: 1.5; stroke-linecap: square"/>
   </g>
   <g id="patch_3">
    <path d="M 36 143.2944 
L 36 40.176 
" style="fill: none; stroke: #000000; stroke-width: 0.8; stroke-linejoin: miter; stroke-linecap: square"/>
   </g>
   <g id="patch_4">
    <path d="M 259.2 143.2944 
L 259.2 40.176 
" style="fill: none; stroke: #000000; stroke-width: 0.8; stroke-linejoin: miter; stroke-linecap: square"/>
   </g>
   <g id="patch_5">
    <path d="M 36 143.2944 
L 259.2 143.2944 
" style="fill: none; stroke: #000000; stroke-width: 0.8; stroke-linejoin: miter; stroke-linecap: square"/>
   </g>
   <g id="patch_6">
    <path d="M 36 40.176 
L 259.2 40.176 
" style="fill: none; stroke: #000000; stroke-width: 0.8; stroke-linejoin: miter; stroke-linecap: square"/>
   </g>
   <g id="text_8">
    <!-- Time domain -->
    <g transform="translate(108.541875 34.176)scale(0.12 -0.12)">
     <defs>
      <path id="DejaVuSans-64" d="M 2906 2969 
L 2906 4863 
L 3481 4863 
L 3481 0 
L 2906 0 
L 2906 525 
Q 2725 213 2448 61 
Q 2172 -91 1784 -91 
Q 1150 -91 751 415 
Q 353 922 353 1747 
Q 353 2572 751 3078 
Q 1150 3584 1784 3584 
Q 2172 3584 2448 3432 
Q 2725 3281 2906 2969 
z
M 947 1747 
Q 947 1113 1208 752 
Q 1469 391 1925 391 
Q 2381 391 2643 752 
Q 2906 1113 2906 1747 
Q 2906 2381 2643 2742 
Q 2381 3103 1925 3103 
Q 1469 3103 1208 2742 
Q 947 2381 947 1747 
z
" transform="scale(0.015625)"/>
      <path id="DejaVuSans-6f" d="M 1959 3097 
Q 1497 3097 1228 2736 
Q 959 2375 959 1747 
Q 959 1119 1226 758 
Q 1494 397 1959 397 
Q 2419 397 2687 759 
Q 2956 1122 2956 1747 
Q 2956 2369 2687 2733 
Q 2419 3097 1959 3097 
z
M 1959 3584 
Q 2709 3584 3137 3096 
Q 3566 2609 3566 1747 
Q 3566 888 3137 398 
Q 2709 -91 1959 -91 
Q 1206 -91 779 398 
Q 353 888 353 1747 
Q 353 2609 779 3096 
Q 1206 3584 1959 3584 
z
" transform="scale(0.015625)"/>
      <path id="DejaVuSans-61" d="M 2194 1759 
Q 1497 1759 1228 1600 
Q 959 1441 959 1056 
Q 959 750 1161 570 
Q 1363 391 1709 391 
Q 2188 391 2477 730 
Q 2766 1069 2766 1631 
L 2766 1759 
L 2194 1759 
z
M 3341 1997 
L 3341 0 
L 2766 0 
L 2766 531 
Q 2569 213 2275 61 
Q 1981 -91 1556 -91 
Q 1019 -91 701 211 
Q 384 513 384 1019 
Q 384 1609 779 1909 
Q 1175 2209 1959 2209 
L 2766 2209 
L 2766 2266 
Q 2766 2663 2505 2880 
Q 2244 3097 1772 3097 
Q 1472 3097 1187 3025 
Q 903 2953 641 2809 
L 641 3341 
Q 956 3463 1253 3523 
Q 1550 3584 1831 3584 
Q 2591 3584 2966 3190 
Q 3341 2797 3341 1997 
z
" transform="scale(0.015625)"/>
     </defs>
     <use xlink:href="#DejaVuSans-54"/>
     <use xlink:href="#DejaVuSans-69" x="57.958984"/>
     <use xlink:href="#DejaVuSans-6d" x="85.742188"/>
     <use xlink:href="#DejaVuSans-65" x="183.154297"/>
     <use xlink:href="#DejaVuSans-20" x="244.677734"/>
     <use xlink:href="#DejaVuSans-64" x="276.464844"/>
     <use xlink:href="#DejaVuSans-6f" x="339.941406"/>
     <use xlink:href="#DejaVuSans-6d" x="401.123047"/>
     <use xlink:href="#DejaVuSans-61" x="498.535156"/>
     <use xlink:href="#DejaVuSans-69" x="559.814453"/>
     <use xlink:href="#DejaVuSans-6e" x="587.597656"/>
    </g>
   </g>
   <g id="legend_1">
    <g id="patch_7">
     <path d="M 212.15375 58.3185 
L 253.6 58.3185 
Q 255.2 58.3185 255.2 56.7185 
L 255.2 45.776 
Q 255.2 44.176 253.6 44.176 
L 212.15375 44.176 
Q 210.55375 44.176 210.55375 45.776 
L 210.55375 56.7185 
Q 210.55375 58.3185 212.15375 58.3185 
z
" style="fill: #ffffff; opacity: 0.8; stroke: #cccccc; stroke-linejoin: miter"/>
    </g>
    <g id="line2d_7">
     <path d="M 213.75375 50.65475 
L 221.75375 50.65475 
L 229.75375 50.65475 
" style="fill: none; stroke: #1f77b4; stroke-width: 1.5; stroke-linecap: square"/>
    </g>
    <g id="text_9">
     <!-- PPG -->
     <g transform="translate(236.15375 53.45475)scale(0.08 -0.08)">
      <defs>
       <path id="DejaVuSans-50" d="M 1259 4147 
L 1259 2394 
L 2053 2394 
Q 2494 2394 2734 2622 
Q 2975 2850 2975 3272 
Q 2975 3691 2734 3919 
Q 2494 4147 2053 4147 
L 1259 4147 
z
M 628 4666 
L 2053 4666 
Q 2838 4666 3239 4311 
Q 3641 3956 3641 3272 
Q 3641 2581 3239 2228 
Q 2838 1875 2053 1875 
L 1259 1875 
L 1259 0 
L 628 0 
L 628 4666 
z
" transform="scale(0.015625)"/>
       <path id="DejaVuSans-47" d="M 3809 666 
L 3809 1919 
L 2778 1919 
L 2778 2438 
L 4434 2438 
L 4434 434 
Q 4069 175 3628 42 
Q 3188 -91 2688 -91 
Q 1594 -91 976 548 
Q 359 1188 359 2328 
Q 359 3472 976 4111 
Q 1594 4750 2688 4750 
Q 3144 4750 3555 4637 
Q 3966 4525 4313 4306 
L 4313 3634 
Q 3963 3931 3569 4081 
Q 3175 4231 2741 4231 
Q 1884 4231 1454 3753 
Q 1025 3275 1025 2328 
Q 1025 1384 1454 906 
Q 1884 428 2741 428 
Q 3075 428 3337 486 
Q 3600 544 3809 666 
z
" transform="scale(0.015625)"/>
      </defs>
      <use xlink:href="#DejaVuSans-50"/>
      <use xlink:href="#DejaVuSans-50" x="60.302734"/>
      <use xlink:href="#DejaVuSans-47" x="120.605469"/>
     </g>
    </g>
   </g>
  </g>
  <g id="axes_2">
   <g id="patch_8">
    <path d="M 36 297.972 
L 259.2 297.972 
L 259.2 194.8536 
L 36 194.8536 
z
" style="fill: #ffffff"/>
   </g>
   <g id="PathCollection_1">
    <defs>
     <path id="m7a73d9e7f7" d="M 0 3 
C 0.795609 3 1.55874 2.683901 2.12132 2.12132 
C 2.683901 1.55874 3 0.795609 3 0 
C 3 -0.795609 2.683901 -1.55874 2.12132 -2.12132 
C 1.55874 -2.683901 0.795609 -3 0 -3 
C -0.795609 -3 -1.55874 -2.683901 -2.12132 -2.12132 
C -2.683901 -1.55874 -3 -0.795609 -3 0 
C -3 0.795609 -2.683901 1.55874 -2.12132 2.12132 
C -1.55874 2.683901 -0.795609 3 0 3 
z
" style="stroke: #1f77b4"/>
    </defs>
    <g clip-path="url(#pa7045b62e8)">
     <use xlink:href="#m7a73d9e7f7" x="161.06888" y="234.170071" style="fill: #1f77b4; stroke: #1f77b4"/>
    </g>
   </g>
   <g id="matplotlib.axis_3">
    <g id="xtick_6">
     <g id="line2d_8">
      <g>
       <use xlink:href="#m7106cf74a5" x="36" y="297.972" style="stroke: #000000; stroke-width: 0.8"/>
      </g>
     </g>
     <g id="text_10">
      <!-- 0.5 -->
      <g transform="translate(28.048437 312.570438)scale(0.1 -0.1)">
       <defs>
        <path id="DejaVuSans-2e" d="M 684 794 
L 1344 794 
L 1344 0 
L 684 0 
L 684 794 
z
" transform="scale(0.015625)"/>
        <path id="DejaVuSans-35" d="M 691 4666 
L 3169 4666 
L 3169 4134 
L 1269 4134 
L 1269 2991 
Q 1406 3038 1543 3061 
Q 1681 3084 1819 3084 
Q 2600 3084 3056 2656 
Q 3513 2228 3513 1497 
Q 3513 744 3044 326 
Q 2575 -91 1722 -91 
Q 1428 -91 1123 -41 
Q 819 9 494 109 
L 494 744 
Q 775 591 1075 516 
Q 1375 441 1709 441 
Q 2250 441 2565 725 
Q 2881 1009 2881 1497 
Q 2881 1984 2565 2268 
Q 2250 2553 1709 2553 
Q 1456 2553 1204 2497 
Q 953 2441 691 2322 
L 691 4666 
z
" transform="scale(0.015625)"/>
       </defs>
       <use xlink:href="#DejaVuSans-30"/>
       <use xlink:href="#DejaVuSans-2e" x="63.623047"/>
       <use xlink:href="#DejaVuSans-35" x="95.410156"/>
      </g>
     </g>
    </g>
    <g id="xtick_7">
     <g id="line2d_9">
      <g>
       <use xlink:href="#m7106cf74a5" x="73.2" y="297.972" style="stroke: #000000; stroke-width: 0.8"/>
      </g>
     </g>
     <g id="text_11">
      <!-- 1.0 -->
      <g transform="translate(65.248437 312.570438)scale(0.1 -0.1)">
       <defs>
        <path id="DejaVuSans-31" d="M 794 531 
L 1825 531 
L 1825 4091 
L 703 3866 
L 703 4441 
L 1819 4666 
L 2450 4666 
L 2450 531 
L 3481 531 
L 3481 0 
L 794 0 
L 794 531 
z
" transform="scale(0.015625)"/>
       </defs>
       <use xlink:href="#DejaVuSans-31"/>
       <use xlink:href="#DejaVuSans-2e" x="63.623047"/>
       <use xlink:href="#DejaVuSans-30" x="95.410156"/>
      </g>
     </g>
    </g>
    <g id="xtick_8">
     <g id="line2d_10">
      <g>
       <use xlink:href="#m7106cf74a5" x="110.4" y="297.972" style="stroke: #000000; stroke-width: 0.8"/>
      </g>
     </g>
     <g id="text_12">
      <!-- 1.5 -->
      <g transform="translate(102.448438 312.570438)scale(0.1 -0.1)">
       <use xlink:href="#DejaVuSans-31"/>
       <use xlink:href="#DejaVuSans-2e" x="63.623047"/>
       <use xlink:href="#DejaVuSans-35" x="95.410156"/>
      </g>
     </g>
    </g>
    <g id="xtick_9">
     <g id="line2d_11">
      <g>
       <use xlink:href="#m7106cf74a5" x="147.6" y="297.972" style="stroke: #000000; stroke-width: 0.8"/>
      </g>
     </g>
     <g id="text_13">
      <!-- 2.0 -->
      <g transform="translate(139.648438 312.570438)scale(0.1 -0.1)">
       <use xlink:href="#DejaVuSans-32"/>
       <use xlink:href="#DejaVuSans-2e" x="63.623047"/>
       <use xlink:href="#DejaVuSans-30" x="95.410156"/>
      </g>
     </g>
    </g>
    <g id="xtick_10">
     <g id="line2d_12">
      <g>
       <use xlink:href="#m7106cf74a5" x="184.8" y="297.972" style="stroke: #000000; stroke-width: 0.8"/>
      </g>
     </g>
     <g id="text_14">
      <!-- 2.5 -->
      <g transform="translate(176.848437 312.570438)scale(0.1 -0.1)">
       <use xlink:href="#DejaVuSans-32"/>
       <use xlink:href="#DejaVuSans-2e" x="63.623047"/>
       <use xlink:href="#DejaVuSans-35" x="95.410156"/>
      </g>
     </g>
    </g>
    <g id="xtick_11">
     <g id="line2d_13">
      <g>
       <use xlink:href="#m7106cf74a5" x="222" y="297.972" style="stroke: #000000; stroke-width: 0.8"/>
      </g>
     </g>
     <g id="text_15">
      <!-- 3.0 -->
      <g transform="translate(214.048438 312.570438)scale(0.1 -0.1)">
       <defs>
        <path id="DejaVuSans-33" d="M 2597 2516 
Q 3050 2419 3304 2112 
Q 3559 1806 3559 1356 
Q 3559 666 3084 287 
Q 2609 -91 1734 -91 
Q 1441 -91 1130 -33 
Q 819 25 488 141 
L 488 750 
Q 750 597 1062 519 
Q 1375 441 1716 441 
Q 2309 441 2620 675 
Q 2931 909 2931 1356 
Q 2931 1769 2642 2001 
Q 2353 2234 1838 2234 
L 1294 2234 
L 1294 2753 
L 1863 2753 
Q 2328 2753 2575 2939 
Q 2822 3125 2822 3475 
Q 2822 3834 2567 4026 
Q 2313 4219 1838 4219 
Q 1578 4219 1281 4162 
Q 984 4106 628 3988 
L 628 4550 
Q 988 4650 1302 4700 
Q 1616 4750 1894 4750 
Q 2613 4750 3031 4423 
Q 3450 4097 3450 3541 
Q 3450 3153 3228 2886 
Q 3006 2619 2597 2516 
z
" transform="scale(0.015625)"/>
       </defs>
       <use xlink:href="#DejaVuSans-33"/>
       <use xlink:href="#DejaVuSans-2e" x="63.623047"/>
       <use xlink:href="#DejaVuSans-30" x="95.410156"/>
      </g>
     </g>
    </g>
    <g id="xtick_12">
     <g id="line2d_14">
      <g>
       <use xlink:href="#m7106cf74a5" x="259.2" y="297.972" style="stroke: #000000; stroke-width: 0.8"/>
      </g>
     </g>
     <g id="text_16">
      <!-- 3.5 -->
      <g transform="translate(251.248437 312.570438)scale(0.1 -0.1)">
       <use xlink:href="#DejaVuSans-33"/>
       <use xlink:href="#DejaVuSans-2e" x="63.623047"/>
       <use xlink:href="#DejaVuSans-35" x="95.410156"/>
      </g>
     </g>
    </g>
    <g id="text_17">
     <!-- Frequency [Hz]  -->
     <g transform="translate(108.30625 326.248562)scale(0.1 -0.1)">
      <defs>
       <path id="DejaVuSans-46" d="M 628 4666 
L 3309 4666 
L 3309 4134 
L 1259 4134 
L 1259 2759 
L 3109 2759 
L 3109 2228 
L 1259 2228 
L 1259 0 
L 628 0 
L 628 4666 
z
" transform="scale(0.015625)"/>
       <path id="DejaVuSans-72" d="M 2631 2963 
Q 2534 3019 2420 3045 
Q 2306 3072 2169 3072 
Q 1681 3072 1420 2755 
Q 1159 2438 1159 1844 
L 1159 0 
L 581 0 
L 581 3500 
L 1159 3500 
L 1159 2956 
Q 1341 3275 1631 3429 
Q 1922 3584 2338 3584 
Q 2397 3584 2469 3576 
Q 2541 3569 2628 3553 
L 2631 2963 
z
" transform="scale(0.015625)"/>
       <path id="DejaVuSans-71" d="M 947 1747 
Q 947 1113 1208 752 
Q 1469 391 1925 391 
Q 2381 391 2643 752 
Q 2906 1113 2906 1747 
Q 2906 2381 2643 2742 
Q 2381 3103 1925 3103 
Q 1469 3103 1208 2742 
Q 947 2381 947 1747 
z
M 2906 525 
Q 2725 213 2448 61 
Q 2172 -91 1784 -91 
Q 1150 -91 751 415 
Q 353 922 353 1747 
Q 353 2572 751 3078 
Q 1150 3584 1784 3584 
Q 2172 3584 2448 3432 
Q 2725 3281 2906 2969 
L 2906 3500 
L 3481 3500 
L 3481 -1331 
L 2906 -1331 
L 2906 525 
z
" transform="scale(0.015625)"/>
       <path id="DejaVuSans-75" d="M 544 1381 
L 544 3500 
L 1119 3500 
L 1119 1403 
Q 1119 906 1312 657 
Q 1506 409 1894 409 
Q 2359 409 2629 706 
Q 2900 1003 2900 1516 
L 2900 3500 
L 3475 3500 
L 3475 0 
L 2900 0 
L 2900 538 
Q 2691 219 2414 64 
Q 2138 -91 1772 -91 
Q 1169 -91 856 284 
Q 544 659 544 1381 
z
M 1991 3584 
L 1991 3584 
z
" transform="scale(0.015625)"/>
       <path id="DejaVuSans-48" d="M 628 4666 
L 1259 4666 
L 1259 2753 
L 3553 2753 
L 3553 4666 
L 4184 4666 
L 4184 0 
L 3553 0 
L 3553 2222 
L 1259 2222 
L 1259 0 
L 628 0 
L 628 4666 
z
" transform="scale(0.015625)"/>
       <path id="DejaVuSans-7a" d="M 353 3500 
L 3084 3500 
L 3084 2975 
L 922 459 
L 3084 459 
L 3084 0 
L 275 0 
L 275 525 
L 2438 3041 
L 353 3041 
L 353 3500 
z
" transform="scale(0.015625)"/>
      </defs>
      <use xlink:href="#DejaVuSans-46"/>
      <use xlink:href="#DejaVuSans-72" x="50.269531"/>
      <use xlink:href="#DejaVuSans-65" x="89.132812"/>
      <use xlink:href="#DejaVuSans-71" x="150.65625"/>
      <use xlink:href="#DejaVuSans-75" x="214.132812"/>
      <use xlink:href="#DejaVuSans-65" x="277.511719"/>
      <use xlink:href="#DejaVuSans-6e" x="339.035156"/>
      <use xlink:href="#DejaVuSans-63" x="402.414062"/>
      <use xlink:href="#DejaVuSans-79" x="457.394531"/>
      <use xlink:href="#DejaVuSans-20" x="516.574219"/>
      <use xlink:href="#DejaVuSans-5b" x="548.361328"/>
      <use xlink:href="#DejaVuSans-48" x="587.375"/>
      <use xlink:href="#DejaVuSans-7a" x="662.570312"/>
      <use xlink:href="#DejaVuSans-5d" x="715.060547"/>
      <use xlink:href="#DejaVuSans-20" x="754.074219"/>
     </g>
    </g>
   </g>
   <g id="matplotlib.axis_4">
    <g id="text_18">
     <!-- Magnitude -->
     <g transform="translate(29.920312 272.902644)rotate(-90)scale(0.1 -0.1)">
      <defs>
       <path id="DejaVuSans-4d" d="M 628 4666 
L 1569 4666 
L 2759 1491 
L 3956 4666 
L 4897 4666 
L 4897 0 
L 4281 0 
L 4281 4097 
L 3078 897 
L 2444 897 
L 1241 4097 
L 1241 0 
L 628 0 
L 628 4666 
z
" transform="scale(0.015625)"/>
       <path id="DejaVuSans-67" d="M 2906 1791 
Q 2906 2416 2648 2759 
Q 2391 3103 1925 3103 
Q 1463 3103 1205 2759 
Q 947 2416 947 1791 
Q 947 1169 1205 825 
Q 1463 481 1925 481 
Q 2391 481 2648 825 
Q 2906 1169 2906 1791 
z
M 3481 434 
Q 3481 -459 3084 -895 
Q 2688 -1331 1869 -1331 
Q 1566 -1331 1297 -1286 
Q 1028 -1241 775 -1147 
L 775 -588 
Q 1028 -725 1275 -790 
Q 1522 -856 1778 -856 
Q 2344 -856 2625 -561 
Q 2906 -266 2906 331 
L 2906 616 
Q 2728 306 2450 153 
Q 2172 0 1784 0 
Q 1141 0 747 490 
Q 353 981 353 1791 
Q 353 2603 747 3093 
Q 1141 3584 1784 3584 
Q 2172 3584 2450 3431 
Q 2728 3278 2906 2969 
L 2906 3500 
L 3481 3500 
L 3481 434 
z
" transform="scale(0.015625)"/>
      </defs>
      <use xlink:href="#DejaVuSans-4d"/>
      <use xlink:href="#DejaVuSans-61" x="86.279297"/>
      <use xlink:href="#DejaVuSans-67" x="147.558594"/>
      <use xlink:href="#DejaVuSans-6e" x="211.035156"/>
      <use xlink:href="#DejaVuSans-69" x="274.414062"/>
      <use xlink:href="#DejaVuSans-74" x="302.197266"/>
      <use xlink:href="#DejaVuSans-75" x="341.40625"/>
      <use xlink:href="#DejaVuSans-64" x="404.785156"/>
      <use xlink:href="#DejaVuSans-65" x="468.261719"/>
     </g>
    </g>
   </g>
   <g id="line2d_15">
    <path d="M 36 293.2848 
L 37.116 291.008203 
L 38.232 289.209093 
L 39.348 287.83682 
L 40.464 286.840737 
L 41.58 286.170195 
L 42.696 285.774546 
L 43.812 285.603142 
L 44.928 285.605334 
L 47.16 285.774008 
L 50.508 285.66946 
L 51.624 285.637101 
L 53.856 285.237162 
L 54.972 284.840316 
L 56.088 284.254855 
L 57.204 283.230389 
L 61.668 278.013527 
L 62.784 277.086679 
L 63.9 276.848053 
L 65.016 277.321839 
L 67.248 278.95549 
L 68.364 279.492662 
L 69.48 279.874178 
L 70.596 280.066739 
L 71.712 280.026844 
L 73.944 279.443006 
L 75.06 279.091945 
L 76.176 278.620697 
L 77.292 277.932291 
L 80.64 274.302405 
L 81.756 274.206089 
L 82.872 274.990292 
L 83.988 276.498893 
L 86.22 280.395722 
L 87.336 281.800118 
L 88.452 282.049657 
L 89.568 281.170474 
L 90.684 279.448907 
L 92.916 275.054419 
L 97.38 265.01158 
L 98.496 261.492849 
L 99.612 256.816063 
L 101.844 246.019302 
L 102.96 240.121788 
L 105.192 226.680808 
L 107.424 213.216425 
L 108.54 207.322161 
L 109.656 202.863647 
L 110.772 200.199524 
L 111.888 199.5408 
L 113.004 200.827492 
L 114.12 203.73584 
L 115.236 207.966101 
L 117.468 218.740004 
L 119.7 229.383806 
L 121.932 238.10224 
L 126.396 253.769438 
L 129.744 266.703062 
L 130.86 271.457919 
L 131.976 275.718669 
L 133.092 279.298241 
L 134.208 281.994492 
L 135.324 283.894178 
L 136.44 284.956204 
L 137.556 285.290317 
L 138.672 285.160826 
L 139.788 284.749448 
L 140.904 284.480198 
L 142.02 284.3532 
L 143.136 284.357839 
L 144.252 284.563167 
L 145.368 284.625247 
L 146.484 284.05316 
L 147.6 282.435621 
L 148.716 279.666594 
L 149.832 275.930092 
L 150.948 271.104053 
L 153.18 258.858633 
L 155.412 245.81363 
L 156.528 240.004869 
L 157.644 235.504756 
L 158.76 233.147348 
L 159.876 232.714302 
L 160.992 234.170071 
L 162.108 237.5781 
L 163.224 242.295717 
L 167.688 264.684759 
L 168.804 269.156945 
L 169.92 272.776912 
L 171.036 275.480753 
L 172.152 277.132458 
L 173.268 277.892741 
L 174.384 278.049677 
L 175.5 277.694043 
L 176.616 277.076807 
L 177.732 276.627076 
L 178.848 276.605252 
L 181.08 277.658194 
L 185.544 280.253588 
L 186.66 280.78196 
L 198.936 288.106682 
L 201.168 288.919665 
L 202.284 289.084362 
L 203.4 288.964901 
L 204.516 288.527334 
L 205.632 287.807908 
L 206.748 286.735219 
L 207.864 285.221091 
L 208.98 283.104107 
L 210.096 280.374901 
L 211.212 277.044144 
L 213.444 269.395066 
L 215.676 261.470083 
L 217.908 254.410014 
L 219.024 251.347852 
L 220.14 248.824829 
L 221.256 246.888527 
L 222.372 245.542478 
L 223.488 244.822134 
L 224.604 245.266801 
L 225.72 246.660778 
L 227.952 250.85552 
L 230.184 255.219771 
L 231.3 256.929322 
L 232.416 258.084279 
L 233.532 258.872027 
L 235.764 260.106425 
L 239.112 261.599446 
L 241.344 262.957143 
L 243.576 263.841721 
L 244.692 264.678802 
L 246.924 267.80309 
L 248.04 268.493263 
L 249.156 269.753344 
L 250.272 270.798989 
L 251.388 271.565303 
L 252.504 271.987388 
L 253.62 272.000348 
L 254.736 271.539287 
L 255.852 270.539308 
L 256.968 268.935514 
L 258.084 266.66301 
L 258.084 266.66301 
" clip-path="url(#pa7045b62e8)" style="fill: none; stroke: #1f77b4; stroke-width: 1.5; stroke-linecap: square"/>
   </g>
   <g id="line2d_16">
    <path d="M 36 285.549444 
L 40.464 286.161735 
L 47.16 286.943625 
L 49.392 287.383656 
L 50.508 287.331837 
L 52.74 286.87097 
L 57.204 285.767036 
L 59.436 285.396767 
L 62.784 284.31821 
L 63.9 284.247772 
L 65.016 284.506537 
L 67.248 285.583524 
L 68.364 286.192806 
L 69.48 286.671237 
L 70.596 286.91638 
L 71.712 286.846753 
L 72.828 286.587324 
L 75.06 285.731057 
L 77.292 284.517222 
L 78.408 283.596693 
L 79.524 282.458714 
L 81.756 279.94242 
L 82.872 278.893654 
L 83.988 278.069822 
L 85.104 277.613929 
L 87.336 276.933187 
L 88.452 276.185195 
L 89.568 275.031291 
L 92.916 270.419898 
L 95.148 267.040895 
L 96.264 265.127567 
L 97.38 262.787028 
L 98.496 259.670263 
L 99.612 255.472504 
L 100.728 250.610205 
L 101.844 245.222779 
L 106.308 221.664372 
L 107.424 217.240177 
L 108.54 213.861576 
L 109.656 212.521545 
L 110.772 213.086075 
L 111.888 215.366487 
L 113.004 218.758789 
L 115.236 227.40038 
L 117.468 235.84732 
L 118.584 239.265138 
L 119.7 242.128862 
L 120.816 244.481754 
L 121.932 246.41255 
L 123.048 247.683997 
L 126.396 249.598532 
L 127.512 250.547007 
L 128.628 251.939464 
L 129.744 254.189249 
L 133.092 265.161315 
L 134.208 267.786171 
L 135.324 269.764459 
L 136.44 271.024194 
L 137.556 271.162598 
L 138.672 270.739847 
L 139.788 270.187883 
L 140.904 269.883412 
L 143.136 269.627946 
L 144.252 269.700857 
L 145.368 269.978867 
L 146.484 270.450738 
L 147.6 271.186911 
L 148.716 272.27945 
L 149.832 273.862639 
L 150.948 275.9653 
L 153.18 280.94243 
L 154.296 283.15959 
L 155.412 284.95075 
L 156.528 286.288986 
L 157.644 287.048855 
L 158.76 287.091736 
L 159.876 286.777031 
L 160.992 286.193693 
L 163.224 284.588698 
L 164.34 283.734231 
L 165.456 283.031561 
L 166.572 282.462379 
L 167.688 282.05036 
L 168.804 281.865209 
L 174.384 281.506664 
L 176.616 281.017782 
L 179.964 279.938374 
L 183.312 278.619789 
L 185.544 277.709511 
L 187.776 277.119627 
L 188.892 276.967843 
L 191.124 277.063257 
L 193.356 277.465424 
L 195.588 278.097888 
L 196.704 278.838166 
L 200.052 281.645371 
L 201.168 282.170211 
L 202.284 282.174088 
L 203.4 281.403637 
L 204.516 279.765988 
L 205.632 277.323796 
L 206.748 274.04081 
L 207.864 269.946201 
L 208.98 265.20667 
L 211.212 254.32489 
L 214.56 236.977221 
L 215.676 231.723915 
L 216.792 227.27088 
L 217.908 223.747499 
L 219.024 221.102244 
L 220.14 219.480961 
L 221.256 219.248102 
L 222.372 220.282934 
L 223.488 222.438418 
L 224.604 226.047691 
L 225.72 230.812712 
L 229.068 247.055971 
L 230.184 251.909276 
L 231.3 256.023388 
L 232.416 259.263354 
L 233.532 261.707404 
L 234.648 263.526297 
L 235.764 264.862638 
L 236.88 265.802173 
L 237.996 266.300706 
L 240.228 266.41965 
L 242.46 266.545731 
L 243.576 266.679389 
L 244.692 267.127173 
L 246.924 269.395267 
L 251.388 270.089421 
L 254.736 270.104547 
L 258.084 270.104701 
L 258.084 270.104701 
" clip-path="url(#pa7045b62e8)" style="fill: none; stroke: #ff7f0e; stroke-width: 1.5; stroke-linecap: square"/>
   </g>
   <g id="patch_9">
    <path d="M 36 297.972 
L 36 194.8536 
" style="fill: none; stroke: #000000; stroke-width: 0.8; stroke-linejoin: miter; stroke-linecap: square"/>
   </g>
   <g id="patch_10">
    <path d="M 259.2 297.972 
L 259.2 194.8536 
" style="fill: none; stroke: #000000; stroke-width: 0.8; stroke-linejoin: miter; stroke-linecap: square"/>
   </g>
   <g id="patch_11">
    <path d="M 36 297.972 
L 259.2 297.972 
" style="fill: none; stroke: #000000; stroke-width: 0.8; stroke-linejoin: miter; stroke-linecap: square"/>
   </g>
   <g id="patch_12">
    <path d="M 36 194.8536 
L 259.2 194.8536 
" style="fill: none; stroke: #000000; stroke-width: 0.8; stroke-linejoin: miter; stroke-linecap: square"/>
   </g>
   <g id="text_19">
    <!-- Frequency domain -->
    <g transform="translate(92.226562 188.8536)scale(0.12 -0.12)">
     <use xlink:href="#DejaVuSans-46"/>
     <use xlink:href="#DejaVuSans-72" x="50.269531"/>
     <use xlink:href="#DejaVuSans-65" x="89.132812"/>
     <use xlink:href="#DejaVuSans-71" x="150.65625"/>
     <use xlink:href="#DejaVuSans-75" x="214.132812"/>
     <use xlink:href="#DejaVuSans-65" x="277.511719"/>
     <use xlink:href="#DejaVuSans-6e" x="339.035156"/>
     <use xlink:href="#DejaVuSans-63" x="402.414062"/>
     <use xlink:href="#DejaVuSans-79" x="457.394531"/>
     <use xlink:href="#DejaVuSans-20" x="516.574219"/>
     <use xlink:href="#DejaVuSans-64" x="548.361328"/>
     <use xlink:href="#DejaVuSans-6f" x="611.837891"/>
     <use xlink:href="#DejaVuSans-6d" x="673.019531"/>
     <use xlink:href="#DejaVuSans-61" x="770.431641"/>
     <use xlink:href="#DejaVuSans-69" x="831.710938"/>
     <use xlink:href="#DejaVuSans-6e" x="859.494141"/>
    </g>
   </g>
   <g id="legend_2">
    <g id="patch_13">
     <path d="M 169.73625 236.4811 
L 253.6 236.4811 
Q 255.2 236.4811 255.2 234.8811 
L 255.2 200.4536 
Q 255.2 198.8536 253.6 198.8536 
L 169.73625 198.8536 
Q 168.13625 198.8536 168.13625 200.4536 
L 168.13625 234.8811 
Q 168.13625 236.4811 169.73625 236.4811 
z
" style="fill: #ffffff; opacity: 0.8; stroke: #cccccc; stroke-linejoin: miter"/>
    </g>
    <g id="line2d_17">
     <path d="M 171.33625 205.33235 
L 179.33625 205.33235 
L 187.33625 205.33235 
" style="fill: none; stroke: #1f77b4; stroke-width: 1.5; stroke-linecap: square"/>
    </g>
    <g id="text_20">
     <!-- PPG -->
     <g transform="translate(193.73625 208.13235)scale(0.08 -0.08)">
      <use xlink:href="#DejaVuSans-50"/>
      <use xlink:href="#DejaVuSans-50" x="60.302734"/>
      <use xlink:href="#DejaVuSans-47" x="120.605469"/>
     </g>
    </g>
    <g id="line2d_18">
     <path d="M 171.33625 217.07485 
L 179.33625 217.07485 
L 187.33625 217.07485 
" style="fill: none; stroke: #ff7f0e; stroke-width: 1.5; stroke-linecap: square"/>
    </g>
    <g id="text_21">
     <!-- Accelerometer -->
     <g transform="translate(193.73625 219.87485)scale(0.08 -0.08)">
      <defs>
       <path id="DejaVuSans-41" d="M 2188 4044 
L 1331 1722 
L 3047 1722 
L 2188 4044 
z
M 1831 4666 
L 2547 4666 
L 4325 0 
L 3669 0 
L 3244 1197 
L 1141 1197 
L 716 0 
L 50 0 
L 1831 4666 
z
" transform="scale(0.015625)"/>
       <path id="DejaVuSans-6c" d="M 603 4863 
L 1178 4863 
L 1178 0 
L 603 0 
L 603 4863 
z
" transform="scale(0.015625)"/>
      </defs>
      <use xlink:href="#DejaVuSans-41"/>
      <use xlink:href="#DejaVuSans-63" x="66.658203"/>
      <use xlink:href="#DejaVuSans-63" x="121.638672"/>
      <use xlink:href="#DejaVuSans-65" x="176.619141"/>
      <use xlink:href="#DejaVuSans-6c" x="238.142578"/>
      <use xlink:href="#DejaVuSans-65" x="265.925781"/>
      <use xlink:href="#DejaVuSans-72" x="327.449219"/>
      <use xlink:href="#DejaVuSans-6f" x="366.3125"/>
      <use xlink:href="#DejaVuSans-6d" x="427.494141"/>
      <use xlink:href="#DejaVuSans-65" x="524.90625"/>
      <use xlink:href="#DejaVuSans-74" x="586.429688"/>
      <use xlink:href="#DejaVuSans-65" x="625.638672"/>
      <use xlink:href="#DejaVuSans-72" x="687.162109"/>
     </g>
    </g>
    <g id="PathCollection_2">
     <g>
      <use xlink:href="#m7a73d9e7f7" x="179.33625" y="229.51735" style="fill: #1f77b4; stroke: #1f77b4"/>
     </g>
    </g>
    <g id="text_22">
     <!-- True HR -->
     <g transform="translate(193.73625 231.61735)scale(0.08 -0.08)">
      <defs>
       <path id="DejaVuSans-52" d="M 2841 2188 
Q 3044 2119 3236 1894 
Q 3428 1669 3622 1275 
L 4263 0 
L 3584 0 
L 2988 1197 
Q 2756 1666 2539 1819 
Q 2322 1972 1947 1972 
L 1259 1972 
L 1259 0 
L 628 0 
L 628 4666 
L 2053 4666 
Q 2853 4666 3247 4331 
Q 3641 3997 3641 3322 
Q 3641 2881 3436 2590 
Q 3231 2300 2841 2188 
z
M 1259 4147 
L 1259 2491 
L 2053 2491 
Q 2509 2491 2742 2702 
Q 2975 2913 2975 3322 
Q 2975 3731 2742 3939 
Q 2509 4147 2053 4147 
L 1259 4147 
z
" transform="scale(0.015625)"/>
      </defs>
      <use xlink:href="#DejaVuSans-54"/>
      <use xlink:href="#DejaVuSans-72" x="46.333984"/>
      <use xlink:href="#DejaVuSans-75" x="87.447266"/>
      <use xlink:href="#DejaVuSans-65" x="150.826172"/>
      <use xlink:href="#DejaVuSans-20" x="212.349609"/>
      <use xlink:href="#DejaVuSans-48" x="244.136719"/>
      <use xlink:href="#DejaVuSans-52" x="319.332031"/>
     </g>
    </g>
   </g>
  </g>
 </g>
 <defs>
  <clipPath id="p1a3dd09f85">
   <rect x="36" y="40.176" width="223.2" height="103.1184"/>
  </clipPath>
  <clipPath id="pa7045b62e8">
   <rect x="36" y="194.8536" width="223.2" height="103.1184"/>
  </clipPath>
 </defs>
</svg>
